<?xml version="1.0" standalone="no"?>
<!DOCTYPE svg PUBLIC "-//W3C//DTD SVG 20010904//EN"
 "http://www.w3.org/TR/2001/REC-SVG-20010904/DTD/svg10.dtd">
<svg version="1.0" xmlns="http://www.w3.org/2000/svg"
 width="840.000000pt" height="840.000000pt" viewBox="0 0 840.000000 840.000000"
 preserveAspectRatio="xMidYMid meet">
<metadata>
Created by potrace 1.14, written by Peter Selinger 2001-2017
</metadata>
<g transform="translate(0.000000,840.000000) scale(0.100000,-0.100000)"
fill="#000000" stroke="none">
<path d="M1608 7045 c-3 -4 -23 -8 -98 -19 -413 -63 -824 -313 -1121 -681 -55
-68 -88 -118 -157 -230 -28 -47 -74 -139 -92 -188 -11 -28 -25 -61 -30 -72
-13 -29 -36 -101 -55 -176 -19 -70 -21 -80 -29 -133 -3 -20 -9 -53 -13 -73
-17 -85 -8 -518 12 -608 3 -11 7 -31 9 -45 11 -68 70 -261 94 -306 5 -10 22
-44 37 -74 65 -128 207 -301 313 -380 19 -14 40 -31 47 -37 8 -7 16 -13 19
-13 3 0 22 -12 43 -26 52 -35 157 -88 218 -109 49 -16 65 -21 114 -31 14 -3
27 -7 31 -9 10 -6 139 -18 200 -18 71 1 175 11 220 23 19 5 49 11 65 13 17 3
50 10 75 15 140 33 335 37 387 9 63 -33 91 -98 97 -222 2 -44 7 -88 11 -97 13
-31 74 -42 134 -23 45 14 70 120 74 315 7 284 -55 456 -210 580 -103 83 -318
123 -513 95 -25 -3 -52 -6 -60 -7 -18 0 -162 -31 -275 -57 -111 -27 -192 -38
-315 -43 -104 -4 -247 31 -322 78 -50 32 -122 106 -155 160 -65 105 -123 252
-142 361 -22 122 -25 162 -24 278 2 241 84 426 271 615 115 115 223 187 383
253 33 14 177 50 245 62 155 26 445 17 609 -19 85 -19 283 -96 316 -123 8 -7
19 -13 23 -13 10 0 152 -95 201 -135 58 -47 83 -70 145 -130 58 -55 75 -74
155 -170 28 -33 56 -66 63 -73 6 -7 12 -17 12 -20 0 -4 11 -19 24 -33 13 -14
31 -39 40 -55 14 -25 45 -71 73 -110 5 -5 14 -21 21 -33 125 -216 201 -382
262 -566 18 -55 35 -107 38 -115 11 -34 15 -48 46 -185 14 -60 28 -123 31
-140 11 -62 17 -101 21 -130 1 -16 5 -48 8 -70 27 -224 23 -693 -8 -850 -2
-11 -7 -45 -12 -75 -4 -30 -8 -57 -9 -60 -1 -3 -5 -25 -9 -50 -26 -146 -127
-460 -162 -500 -7 -8 -13 -18 -13 -23 0 -8 -45 -98 -81 -162 -47 -84 -127
-192 -189 -253 -82 -83 -150 -115 -244 -117 -38 0 -71 3 -73 7 -3 5 -14 8 -24
8 -23 0 -88 35 -110 59 -9 9 -55 68 -103 131 -154 203 -164 215 -217 266 -25
23 -63 56 -85 73 -22 17 -46 36 -53 42 -24 20 -137 67 -200 84 -128 33 -293
18 -444 -39 -81 -30 -247 -115 -293 -149 -5 -4 -48 -35 -95 -69 -47 -33 -87
-64 -90 -67 -3 -3 -34 -31 -70 -61 -114 -96 -251 -234 -270 -271 -19 -35 -18
-37 1 -76 19 -38 52 -63 85 -63 26 0 67 26 124 80 175 164 353 150 524 -43 32
-36 65 -76 74 -90 43 -63 60 -87 113 -152 84 -104 227 -235 256 -235 7 0 13
-4 13 -9 0 -4 35 -24 78 -44 275 -125 593 -39 937 254 94 81 296 295 374 398
19 25 42 52 50 62 9 9 43 54 76 99 33 46 65 88 70 94 6 6 63 90 127 186 246
371 473 808 571 1100 32 95 65 207 71 242 2 15 7 32 10 36 3 5 8 24 11 43 3
19 10 59 15 89 6 30 13 73 16 95 3 22 7 51 10 65 25 145 25 582 0 760 -12 84
-18 116 -32 180 -3 14 -8 43 -11 65 -3 22 -9 45 -13 50 -4 6 -10 27 -14 47 -9
49 -76 249 -88 266 -6 6 -8 12 -5 12 7 0 -17 55 -80 190 -51 107 -120 227
-194 337 -28 41 -52 83 -54 93 -4 20 27 57 89 105 21 17 44 35 51 42 17 16
134 69 170 77 75 16 92 19 130 19 39 -1 77 -6 140 -20 42 -10 44 -10 50 -13 3
-1 8 -3 13 -4 117 -29 378 -250 502 -426 14 -19 35 -46 48 -60 12 -13 22 -28
22 -32 0 -3 6 -13 13 -20 22 -25 57 -77 57 -87 0 -5 3 -11 7 -13 16 -7 174
-295 181 -328 0 -3 6 -18 12 -35 31 -80 83 -236 96 -290 23 -90 55 -227 60
-255 3 -14 7 -32 9 -40 5 -16 34 -204 40 -255 2 -16 6 -57 10 -90 3 -33 8 -78
11 -100 32 -280 37 -957 9 -1170 -2 -16 -6 -59 -10 -95 -3 -36 -8 -72 -10 -80
-4 -13 -10 -54 -21 -135 -1 -11 -3 -20 -4 -20 -1 0 -3 -9 -5 -20 -6 -31 -18
-89 -21 -100 -2 -5 -5 -19 -8 -30 -28 -105 -30 -112 -39 -135 -3 -8 -11 -33
-18 -55 -12 -41 -66 -162 -81 -180 -25 -33 -58 -65 -92 -90 -33 -25 -49 -30
-106 -32 -71 -2 -119 10 -209 54 -58 28 -190 125 -256 188 -56 53 -142 108
-222 140 -102 41 -228 43 -333 6 -64 -22 -149 -71 -218 -125 -31 -24 -249
-244 -282 -285 -19 -23 -42 -50 -50 -59 -55 -59 -246 -315 -268 -358 -23 -44
8 -98 61 -108 21 -4 43 6 95 41 115 80 186 107 270 107 42 0 77 -5 84 -12 7
-7 20 -12 29 -12 32 0 164 -97 244 -179 197 -203 366 -275 549 -234 70 15 209
81 248 118 15 14 30 25 34 25 12 0 190 186 234 245 25 33 47 62 51 65 12 11
200 271 269 375 41 61 78 115 82 120 5 6 34 51 66 101 31 50 63 99 70 110 6
10 15 26 19 34 4 8 9 17 13 20 8 7 158 270 190 335 14 28 28 52 31 55 3 3 9
18 13 35 4 16 11 32 15 35 3 3 19 39 35 80 16 41 34 89 41 105 7 17 21 55 30
85 9 30 19 62 22 70 4 8 7 17 7 20 1 3 5 11 9 18 5 6 6 12 3 12 -3 0 1 19 10
41 8 23 16 51 19 63 2 12 21 84 40 161 41 161 103 462 121 585 2 19 7 46 9 60
8 40 20 131 29 220 3 25 8 70 11 100 8 76 9 363 1 430 -4 30 -9 78 -12 105 -4
44 -9 74 -29 178 -12 65 -21 102 -56 242 -6 22 -12 47 -14 55 -9 35 -75 212
-108 290 -20 47 -35 92 -34 100 2 8 17 43 34 77 115 229 274 381 438 421 24 6
174 5 195 -1 8 -2 29 -7 45 -12 17 -4 39 -13 50 -19 11 -5 23 -10 26 -11 21
-1 128 -90 169 -141 78 -97 167 -302 196 -454 3 -14 9 -41 14 -60 5 -19 11
-53 14 -75 4 -22 11 -62 16 -90 6 -27 12 -59 14 -70 13 -63 61 -245 73 -275 4
-8 7 -17 8 -20 18 -72 95 -237 145 -310 21 -30 62 -77 91 -103 30 -27 62 -55
71 -64 26 -23 13 -54 -44 -106 -155 -141 -412 -403 -488 -497 -19 -24 -44 -53
-55 -64 -11 -12 -27 -30 -35 -42 -8 -12 -48 -65 -88 -118 -88 -117 -194 -288
-252 -411 -44 -92 -103 -255 -93 -255 3 0 1 -6 -5 -12 -5 -7 -12 -29 -15 -48
-3 -19 -9 -46 -13 -60 -9 -33 -15 -320 -7 -334 4 -5 8 -24 9 -42 1 -18 5 -37
8 -42 3 -5 8 -26 12 -46 10 -65 71 -240 124 -357 28 -63 54 -122 57 -131 3
-10 9 -18 14 -18 5 0 9 -5 9 -11 0 -6 13 -31 30 -56 16 -24 30 -46 30 -49 0
-11 145 -219 170 -244 3 -3 20 -24 38 -48 126 -162 499 -512 546 -512 19 0 53
16 72 34 7 6 27 22 45 36 18 14 61 48 95 75 34 28 251 201 482 385 231 184
425 345 431 358 33 70 -10 126 -104 134 -5 0 -62 -24 -125 -55 -138 -67 -149
-70 -270 -70 -75 0 -106 5 -149 22 -169 69 -311 221 -415 443 -76 163 -167
459 -191 623 -9 60 -14 87 -21 115 -13 53 -12 385 1 460 22 126 23 133 39 185
34 118 116 304 138 313 5 2 8 8 8 12 0 9 62 100 88 130 7 8 29 35 50 59 20 25
59 65 86 90 26 25 59 56 72 69 13 12 26 22 30 22 4 0 14 8 23 18 17 18 123 90
207 140 93 55 342 167 395 177 33 7 99 46 109 64 15 30 12 66 -8 84 -10 10
-45 22 -78 28 -110 20 -189 81 -248 190 -26 49 -62 141 -71 179 -1 8 -8 34
-14 56 -6 23 -13 54 -16 70 -2 16 -9 48 -15 72 -5 23 -14 59 -19 80 -15 63
-82 276 -91 287 -4 5 -11 21 -15 34 -18 59 -140 289 -164 311 -4 3 -18 21 -32
40 -34 45 -125 137 -174 175 -49 38 -175 117 -191 119 -7 1 -18 7 -25 12 -8 6
-23 14 -34 17 -11 3 -46 15 -79 27 -65 23 -140 40 -251 55 -63 9 -222 10 -296
2 -132 -13 -295 -68 -403 -134 -158 -96 -376 -337 -472 -520 -47 -90 -87 -91
-146 -5 -39 57 -40 58 -78 103 -16 20 -30 39 -30 42 0 17 -205 227 -279 287
-129 103 -290 189 -406 215 -5 2 -28 7 -50 13 -74 20 -129 25 -245 25 -251 -1
-437 -47 -610 -151 -41 -25 -77 -48 -80 -51 -3 -3 -27 -24 -55 -46 -84 -66
-218 -210 -284 -302 -34 -49 -69 -98 -78 -110 -21 -31 -49 -29 -81 5 -15 15
-52 55 -83 87 -65 69 -133 129 -210 186 -30 22 -61 45 -70 52 -108 82 -444
237 -566 262 -10 2 -29 8 -43 13 -14 5 -61 17 -105 26 -44 8 -93 19 -110 22
-32 7 -440 15 -447 9z"/>
</g>
</svg>
